<svg xmlns="http://www.w3.org/2000/svg" viewBox="0 0 24 24">
  <path fill="currentColor"
    d="M19.628 5.087l.296 1.123a2.715 2.715 0 01-.908 2.793l-7.75 6.329.373 3.555c.026.251-.044.502-.193.702l-.081.095-.607.632a.818.818 0 01-1.322-.2l-.043-.102-1.018-2.965-1.421-1.422-2.965-1.018a.82.82 0 01-.302-1.364l.63-.607a.999.999 0 01.798-.274l3.555.37 1.94-2.375-4.95-3.96a.498.498 0 01-.078-.702l.017-.021.685-.686a2.306 2.306 0 012.46-.522l5.082 1.953L15 4.986a2.713 2.713 0 012.792-.908l1.124.296c.348.092.62.364.712.713zm-.967.254l-1.124-.296a1.71 1.71 0 00-1.66.459l-.103.114-6.671 8.167-4.092-.427-.418.401 2.904.997 1.749 1.75.995 2.905.361-.373.042-.047-.428-4.092 8.168-6.67c.48-.393.708-1.01.605-1.614l-.032-.15-.296-1.124zm-1.081 4.835l1.954 5.081a2.311 2.311 0 01-.406 2.337l-.116.124-.686.685-.02.018a.502.502 0 01-.641-.013l-.063-.065-3.96-4.952.775-.632 3.62 4.524.268-.273.094-.103c.261-.324.352-.755.245-1.158l-.043-.133-1.836-4.775.815-.665zm-4.42-2.94L8.387 5.4a1.31 1.31 0 00-1.29.202l-.104.094-.272.269 4.523 3.617 1.918-2.348z">
  </path>
</svg>
