<svg xmlns="http://www.w3.org/2000/svg" viewBox="0 0 24 24">
  <path fill="currentColor"
    d="M15.665 3.78l.139.063c.092.043.183.088.273.133l-.273-.133.18.087.394.206.367.215.202.13c.157.102.31.21.458.32l.295.231.203.172.229.205.2.192.27.278.171.191.25.3.163.209.216.299.195.294.205.34.141.256.126.244.118.25.173.405.097.253a8.976 8.976 0 01.072 5.955l-.114.256a.496.496 0 01-.093.298 8.969 8.969 0 01-4.725 4.821l-.337.138a10.167 10.167 0 01-.815.274l-.333.087-.268.06-.413.077-.41.057-.284.028-.243.017-.2.009-.385.005-.263-.007-.203-.01-.275-.021-.344-.039-.301-.045-.293-.054a8.127 8.127 0 01-.561-.132l-.391-.115-.332-.112-.31-.119-.302-.128-.318-.15-.394-.206-.367-.215-.16-.101-.257-.173-.234-.17-.304-.238-.203-.17-.229-.206-.2-.192-.27-.278-.242-.273-.298-.368-.204-.278-.226-.335-.23-.379-.146-.265-.15-.294-.102-.22-.134-.312-.063-.159-.064-.171-.077-.222a8.967 8.967 0 01.561-7.014.494.494 0 01.118-.216 8.952 8.952 0 014.235-3.853l.364-.15a8.957 8.957 0 01.855-.285l.388-.098.221-.049.37-.067.32-.046.272-.03.277-.021.263-.013.262-.005.386.007.203.01.275.021.344.039.301.045.293.054c.27.054.541.122.81.203l.23.072.322.113.231.09.302.128zm-7.551 8.865a9.96 9.96 0 01-3.07 2.62l-.279.147.088.182.108.208.114.205.092.157.164.257.1.146.182.253.232.293.19.22.161.176.174.177.246.234.305.263c.088.072.177.142.268.21l-.235-.183.139.11.142.108.265.188.158.104.29.178.129.074.097.05 2.204-4.724c-.7-.379-1.454-.93-2.264-1.653zm5.898 2.707l-.113-.017c-1.023-.152-1.893-.36-2.61-.626l-2.21 4.739.215.081.345.116.258.075.337.084.337.07.226.037.336.044.408.034.228.01.184.003.243-.003.272-.01c.204-.013.409-.033.612-.06l.283-.045c.138-.024.276-.052.412-.083l.26-.064-.065-.31a9.956 9.956 0 01.042-4.075zM4.626 8.9l-.073.175a7.977 7.977 0 00-.16 5.404 8.954 8.954 0 002.988-2.52 35.33 35.33 0 01-2.39-2.618L4.625 8.9zm14.495 6.746h-.136a39.808 39.808 0 01-3.975-.173 8.96 8.96 0 00-.02 3.947 7.966 7.966 0 004.13-3.774zm-4.2-11.094l-.08-.031-.416-.146-.322-.095-.336-.084-.338-.07-.226-.037-.336-.044-.408-.034-.228-.01-.183-.003-.226.002-.27.01a8.343 8.343 0 00-.632.062l-.283.044a8.114 8.114 0 00-.412.083l-.26.064.065.31a9.955 9.955 0 01-.61 5.849l-.139.31c-.176.377-.373.74-.59 1.086.765.694 1.47 1.218 2.11 1.571l4.12-8.837zm.906.424L11.712 13.8c.689.247 1.545.441 2.566.58.09-.27.19-.537.303-.8l.138-.311a9.96 9.96 0 014.238-4.533l.277-.148-.087-.181-.108-.208-.114-.205-.092-.157-.217-.337-.085-.122-.144-.197-.232-.293-.19-.22-.193-.21-.143-.144-.245-.233-.218-.191-.259-.21-.142-.107-.131-.095-.134-.093-.158-.104-.29-.178-.129-.074-.096-.052zM9.01 4.58l-.07.028a7.967 7.967 0 00-3.821 3.31l.5.616a36.023 36.023 0 002.33 2.58A8.96 8.96 0 009.01 4.58zm10.596 4.941l-.19.103a8.953 8.953 0 00-4.12 4.872c1.223.114 2.642.164 4.254.148a7.96 7.96 0 00.056-5.123z">
  </path>
</svg>
