<svg xmlns="http://www.w3.org/2000/svg" viewBox="0 0 24 24">
  <path fill="currentColor"
    d="M12 3c3.63 0 6.538 2.91 6.538 6.538 0 1.58-.61 2.822-1.963 4.66l-.151.206C15.208 16.06 15 16.424 15 16.924V19.8a1.2 1.2 0 01-1.2 1.2h-3.6A1.2 1.2 0 019 19.8v-2.877c0-.419-.147-.742-.914-1.817l-.88-1.209c-1.2-1.676-1.744-2.866-1.744-4.359A6.515 6.515 0 0112 3zm2 14.5h-4v2.3l.007.053A.2.2 0 0010.2 20h3.6l.053-.007A.2.2 0 0014 19.8v-2.3zM12 4a5.515 5.515 0 00-5.538 5.538c0 2.872 3.081 5.007 3.493 6.967L10 16.5h4l.045.005c.412-1.96 3.493-4.095 3.493-6.967A5.515 5.515 0 0012 4z">
  </path>
</svg>
