<svg xmlns="http://www.w3.org/2000/svg" viewBox="0 0 24 24">
  <path fill="currentColor"
    d="M12 3c2.636 0 6.132 1.133 8.835 2.939L13.14 19.924l-.264.483a.997.997 0 01-.813.516l-.11.001a.998.998 0 01-.829-.517l-.266-.483L4.097 7.632v-.001l-.93-1.693C5.868 4.133 9.363 3 12 3zm0 3c-1.783 0-4.309.743-6.365 1.87l-.203.114L12 19.925l2.161-3.931a2 2 0 111.61-2.924l2.796-5.086-.203-.114c-1.941-1.065-4.302-1.786-6.06-1.863L12 6zm2 7a1 1 0 100 2 1 1 0 000-2zm-4-6a2 2 0 11.001 3.999A2 2 0 0110 7zm0 1a1 1 0 100 2 1 1 0 000-2zm2-4c-2.125 0-4.88.814-7.21 2.117l-.292.167.452.823C7.235 5.807 10.038 5 12 5c1.961 0 4.764.807 7.05 2.106l.452-.821-.29-.167c-2.209-1.235-4.797-2.031-6.871-2.111L12 4z">
  </path>
</svg>
