<svg viewBox="0 0 220 200" xmlns="http://www.w3.org/2000/svg" fill-rule="evenodd" clip-rule="evenodd"
  stroke-linecap="round" stroke-linejoin="round" stroke-miterlimit="1.5">
  <g transform="translate(-2300 -740)">
    <g id="Productivity">
      <path fill="none" d="M1800-100h300v300h-300z" transform="matrix(.73333 0 0 .66667 980 806.667)"></path>
      <path
        d="M1111.21 4999.45c-24.7 18.2-20.6 41.84-29.38 61.97-8.85 20.3-20.53 25.61-21.16 51.44-.55 22.91 5.92 30.85 5.92 30.85s22.35 1.58 39.94 2.83c11.59.82 21.81-9.87 23.02-24.08 3.44-40.35 9.75-114.31 9.75-114.31-13.92 3.13-28.92-7.46-28.09-8.7z"
        fill="#f9e4e2" transform="matrix(-.75074 -.0327 -.04016 .61138 3501.114 -2207.431)"></path>
      <circle cx="614.004" cy="2546.47" r="4.97" fill="#fff" transform="matrix(1.21082 0 0 1.36723 1719.014 -2633.07)">
      </circle>
      <circle cx="614.004" cy="2546.47" r="4.97" fill="#fff" transform="matrix(.95985 0 0 1.08384 1879.931 -1914.842)">
      </circle>
      <circle cx="614.004" cy="2546.47" r="4.97" fill="#fff"
        transform="matrix(1.03729 -1.43745 1.00319 .72392 -725.923 -107.45)"></circle>
      <path
        d="M1158.97 4991.44c16.51-5.69 34.04-3.02 48.63 7.4 14.59 10.43 25.01 27.73 28.88 47.99.46 2.42.91 4.76 1.34 6.98 2.66 13.93 8.94 26.33 17.89 35.37 17.73 17.9 22.77 48.71 12.15 74.31-.82 1.98-1.31 3.15-1.31 3.15-33.36-5.69-91.53-12.47-121.9-15.86-11.19-1.27-19.59-12.75-19.44-26.57.45-39.65 1.3-113.68 1.3-113.68s11.63 9.04 19.15 3.29c12.11-9.27 10.03-21.24 10.03-21.24s1.2-.42 3.28-1.14z"
        fill="#f9e4e2" transform="matrix(-.75074 -.0327 -.04016 .61138 3482.824 -2207.431)"></path>
      <path
        d="M580.718 1815.08s-.401-1.96-2.041-2.79c-4.354-2.21-12.181-.75-12.163-4.01-.289-4.73 6.586-6.7 20.274-10.91 7.687-2.37 10.389 1.31 15.295 5.6.54.47 1.686 1.34 2.839 2.19a4.75 4.75 0 0 0 6.101-.22c1.357-1.21 2.944-2.63 4.171-3.73a4.629 4.629 0 0 1 4.587-.93l2.353.81"
        fill="none" stroke="#eca19a" stroke-width="2.24" transform="matrix(.89523 0 0 .89308 1848.938 -738.886)"></path>
      <circle cx="614.004" cy="2546.47" r="4.97" fill="#fff" transform="matrix(-1.4884 0 0 1.651 3330.214 -3371.19)">
      </circle>
      <circle cx="614.004" cy="2546.47" r="4.97" fill="#fff" transform="matrix(-.8387 0 0 1.2248 2931.559 -2279.784)">
      </circle>
      <circle cx="614.004" cy="2546.47" r="4.97" fill="#fff"
        transform="matrix(-1.0608 .23324 .26302 1.19623 2392.63 -2350.006)"></circle>
      <circle cx="614.004" cy="2546.47" r="4.97" fill="#fff"
        transform="matrix(-1.1599 .33026 .42504 1.49281 2048.405 -3162.816)"></circle>
      <path d="M1098.31 5094.31c2.38 11.74 7.6 19.99 19.09 23.75" fill="none" stroke="#eca19a" stroke-width="2.62"
        transform="matrix(.86511 -.03954 .02938 .64278 1316.697 -2392.225)"></path>
      <path d="M1098.31 5094.31c2.38 11.74 7.6 19.99 19.09 23.75" fill="none" stroke="#eca19a" stroke-width="2.75"
        transform="matrix(-.88706 -.04054 -.02363 .51715 3559.376 -1737.523)"></path>
      <path d="M1128.03 4999.55c1.63 3.6 5.83 6.73 10.77 5.07" fill="none" stroke="#f9e4e2" stroke-width="2.44"
        transform="matrix(-.58101 -.61768 -.57411 .54004 5956.419 -1189.902)"></path>
      <path d="M1126.85 4997.79c2.21 4.12 7.62 7.29 11.95 6.83" fill="none" stroke="#f9e4e2" stroke-width="2.44"
        transform="matrix(-.8441 .0812 .07547 .78457 3032.962 -3235.75)"></path>
      <path
        d="M1168.52 4944.51c-15-3.53-26.58-14.97-26.54-32.08.03-17.3 7.69-28.01 7.69-28.01s-7.53-19.95-2.59-34.06c10.68-30.48 53.89-38.12 73.07-17.11 17.78 19.48 7.35 35.03 7.35 35.03"
        fill="none" stroke="#f9e4e2" stroke-width="3.28"
        transform="matrix(-.60837 .04484 .04484 .60838 2947.521 -2243.232)"></path>
      <path d="M1187.42 4944.86c-22.92 4.28-45.49-8.55-45.44-32.43" fill="none" stroke="#eca19a" stroke-width="3.28"
        transform="matrix(-.60837 .04484 .04484 .60838 2947.521 -2243.232)"></path>
      <path d="M1179.07 4912.84c10.75 8.85 22.35.5 27.29-9.89" fill="none" stroke="#f9e4e2" stroke-width="3.28"
        transform="matrix(-.60837 .04484 .04484 .60838 2947.467 -2243.984)"></path>
      <path d="M1197.6 4907.03c2.69 6.38 8.43 12.37 15.89 10.96" fill="none" stroke="#f9e4e2" stroke-width="3.28"
        transform="matrix(-.60837 .04484 .04484 .60838 2947.521 -2243.232)"></path>
      <path d="M1204.75 4949.45c15.07 14.33 29.67-9.43 25.97-28.3" fill="none" stroke="#eca19a" stroke-width="3.1"
        transform="matrix(-.7706 .0568 .03548 .48138 3188.687 -1631.921)"></path>
      <path d="M2505.12 3726.08c-14.63 8.45-19.99 32.78-8.2 45.9" fill="none" stroke="#f9e4e2" stroke-width="2.86"
        stroke-linejoin="miter" transform="matrix(.6914 -.05096 .05171 .70162 495.44 -1719.511)"></path>
      <path
        d="M537.262 1870.51c5.393-1.29 10.418-1.37 15.682-1.55 8.151-.28 23.282.23 25.96-1.8 3.755-2.85.993-6.62-3.887-6.91-4.856-.29-16.967.95-20.784-.13-2.832-.8-4.039-4.7-.832-7.6 4.667-4.24 12.98-3.29 18.73-3.65 9.128-.58 19.024-2.88 26.154-8.95 3.796-3.22 6.406-7.5 7.782-12.27.846-2.93 1.139-6 1.47-9.02 1.687-15.39-2.374-30.57 10.643-31.06"
        fill="none" stroke="#da4c3f" stroke-width="2.79" stroke-linecap="butt"
        transform="translate(1856.387 -736.488) scale(.89523)"></path>
      <path
        d="M144.257 1617.68c-.233.26-.332.62-.266.96.067.34.29.63.603.78h.002c.333.16.731.1 1.007-.14.455-.41 1.187-1.07 1.9-1.71a19.036 19.036 0 0 0 3.461-4.15c.514-.84 1.12-1.8 1.718-2.73 3.555-5.52 9.629-17.56 9.629-17.56l-9.867 3.63-5.04 17.46s-1.922 2.12-3.147 3.46z"
        fill="#eca19a" transform="matrix(.76547 0 0 .76547 2246.215 -327.04)"></path>
      <path
        d="M162.496 1593.89c-.67 3.36-2.066 13.35-2.482 16.36-.029.2.071.42.27.58.198.16.472.25.74.25 1.603-.06 4.49-.15 5.818-.2.414-.01.725-.25.754-.56v-.01c.034-.38-.343-.75-.844-.83-1.791-.23-3.755-.12-3.755-.12l8.815-15.52-.039-.42-9.277.47z"
        fill="#eca19a" transform="matrix(.76547 0 -.12828 .97688 2452.61 -666.225)"></path>
      <g transform="matrix(.76547 0 0 .76547 2246.215 -327.04)">
        <path
          d="M178.729 1569.87l5.094 20.63s-12.716 8.11-31.379 6.26c0 0 3.643-11.84 8.262-23.53 3.539-8.96 6.669-11.17 10.765-11.84 4.866-.79 7.258 8.48 7.258 8.48z"
          fill="#da4c3f"></path>
        <clipPath id="_clip1">
          <path
            d="M178.729 1569.87l5.094 20.63s-12.716 8.11-31.379 6.26c0 0 3.643-11.84 8.262-23.53 3.539-8.96 6.669-11.17 10.765-11.84 4.866-.79 7.258 8.48 7.258 8.48z">
          </path>
        </clipPath>
        <g clip-path="url(#_clip1)">
          <path d="M569.303 1802.14c3.687-.96 14.839-3.94 21.516-7.1" fill="none" stroke="#f9e4e2" stroke-width="2.24"
            transform="matrix(1.15321 .19463 -.19416 1.15043 -149.727 -612.974)"></path>
          <path d="M569.208 1801.32c5.489-.46 16.588-3.83 21.431-7.1" fill="none" stroke="#f9e4e2" stroke-width="2.24"
            transform="matrix(1.15321 .19463 -.19416 1.15043 -150.76 -603.136)"></path>
          <path d="M569.208 1801.32c5.489-.46 16.588-3.83 21.431-7.1" fill="none" stroke="#f9e4e2" stroke-width="1.8"
            transform="matrix(1.28357 .21663 -.26538 1.57242 -99.101 -1366.06)"></path>
        </g>
      </g>
      <circle cx="578.595" cy="1785" r="4.03" fill="#eca19a"
        transform="matrix(.8743 .26618 -.26617 .8743 2345.004 -855.483)"></circle>
      <path
        d="M533.401 2554.29s-2.189 6.4-2.189 9.14c0 1.97.981 3.57 2.189 3.57 1.209 0 2.19-1.6 2.19-3.57 0-2.74-2.19-9.14-2.19-9.14z"
        fill="#da4c3f" transform="matrix(-.87217 1.87766 -1.15308 -.5356 5783.2 1224.644)"></path>
      <path d="M589.047 1785.28c.295.24.574.49.826.76" fill="none" stroke="#fff" stroke-width="4.25"
        transform="matrix(.38887 .11839 -.1533 .50353 2420.875 -110.206)"></path>
      <path d="M592.003 1785.55c.301-.24.61-.47.946-.66" fill="none" stroke="#eca19a" stroke-width="1.72"
        transform="matrix(1.11557 .33963 -.33963 1.11558 2324.942 -1334.39)"></path>
      <path d="M655.955 2508.62l-5.196 86.56" fill="none" stroke="#eca19a" stroke-width="2.23"
        transform="translate(1849.046 -1433.01) scale(.89523)"></path>
      <path d="M648.988 2537.4l1.695 50.8c.285 8.53 7.227 15.34 15.768 15.46 2.439.03 4.18.06 4.18.06" fill="none"
        stroke="#eca19a" stroke-width="2.23" transform="translate(1865.563 -1427.215) scale(.89523)"></path>
      <path d="M654.201 2544l-1.59 57.97" fill="none" stroke="#f9e4e2" stroke-width="2.23"
        transform="translate(1851.857 -1420.535) scale(.89523)"></path>
      <path d="M654.749 2524.29l-1.211 74.86" fill="none" stroke="#f9e4e2" stroke-width="2.23"
        transform="translate(1855.894 -1421.604) scale(.89523)"></path>
      <path d="M654.201 2544l-1.023 40.34" fill="none" stroke="#f9e4e2" stroke-width="3.5"
        transform="translate(2812.449 2302.9) scale(.57192)"></path>
      <path d="M1128.03 4999.55c1.63 3.6 5.83 6.73 10.77 5.07" fill="none" stroke="#f9e4e2" stroke-width="2.44"
        transform="matrix(-.58101 -.61768 -.57411 .54004 5967.815 -1190.375)"></path>
      <path d="M1128.03 4999.55c1.63 3.6 5.83 6.73 10.77 5.07" fill="none" stroke="#f9e4e2" stroke-width="1.35"
        transform="matrix(-1.5343 0 0 1.42609 4195.571 -6328.201)"></path>
      <path d="M658.065 2444.62c-11.592 1.5-13.973 18.13-5.918 24.45" fill="none" stroke="#f9e4e2" stroke-width="2.23"
        transform="translate(1849.046 -1433.01) scale(.89523)"></path>
      <path
        d="M637.908 2605.47c8.11.42.761 5.37-2.506 3.15-1.388-.95-.923-3.06 2.272-3.16.078 0 .156 0 .234.01zm-1.133-13.39c3.061.21 3.006 2.54 3.255 4.72 0 0-.224 1.72-2.504 1.94-3.182.31-3.607-2.55-4.05-4.81 0 0 .299-1.92 3.299-1.85zm-10.889-11.05c3.416.16 7.225 2.24 7.225 2.24 2.055 1.46-1.431 4.04-5.079 1.91-1.01-.57-3.125-.85-3.125-.85-1.495-.23-1.529-.44-1.859-.73-1.187-1.02.037-2.53 2.604-2.57h.234z"
        fill="#fff" fill-rule="nonzero" transform="matrix(.49055 0 0 .89523 2107.991 -1448.172)"></path>
    </g>
  </g>
</svg>
