<svg viewBox="0 0 220 200" xmlns="http://www.w3.org/2000/svg" fill-rule="evenodd" clip-rule="evenodd" stroke-linecap="round" stroke-linejoin="round" stroke-miterlimit="1.5"><path fill="none" d="M0 .003h220v200H0z"></path><path d="M16.59 181.159l190.519 1.144s.958-7.863 1.81-14.142a119.305 119.305 0 012.873-15.047c1.49-5.48 3.619-13.343 5.854-21.337 5.215-19.24-1.064-39.78-16.178-52.837-22.564-19.586-53.75-26.007-82.275-16.941C98.758 68.444 76.94 72.84 57.567 72.435c-18.732-.405-36.4 8.733-46.938 24.256-11.707 17.382-12.985 39.816-3.193 58.377 1.49 2.824 2.768 5.266 3.726 7.005.958 1.823 1.703 3.741 2.128 5.73 1.171 4.73 3.3 13.356 3.3 13.356z" fill="#f9e4e2"></path><path d="M84.915 57.538c.246.052.461.169.64.353L96.71 71.36c.333.468.265.652.166.99l-3.78 10.044 8.982.007c.476.095.496.193.661.381l18.255 23.64c.246.365.187.285.21.611v8.2c-.083 1.089-1.909 1.242-2.002 0v-7.858l-17.745-22.982H91.65a1.046 1.046 0 01-.936-1.353L94.8 72.19 83.928 59.045c-.354-.7.115-1.556.987-1.507z" fill="#da4c3f" fill-rule="nonzero"></path><path d="M145.548 75.104c.74.113 1.15.99.672 1.634l-25.563 30.76c-1.37 1.478-2.17-.426-1.538-1.277l25.563-30.761c.334-.361.344-.379.866-.356z" fill="#da4c3f" fill-rule="nonzero"></path><path d="M32.482 165.628s-8-2.556-8-11.02v-27.95c0-1.163.662-2.157 2.107-3.145l5.893-3.885M66.583 181.63h-24.06a10.04 10.04 0 01-7.097-2.94 10.042 10.042 0 01-2.94-7.097v-54.926a10.04 10.04 0 0110.037-10.037H69.82" fill="#e57f78"></path><path d="M182.065 181.63H61.908c-5.203 0-9.422-3.734-9.422-8.339V116.97c0-4.605 4.219-8.339 9.422-8.339h120.157c5.203 0 9.42 3.734 9.42 8.339v56.322c0 4.605-4.217 8.34-9.42 8.34" fill="#eca19a"></path><path d="M173.485 123.2a6.559 6.559 0 00-6.566-6.555H83.045a6.557 6.557 0 00-6.557 6.555v42.883a6.557 6.557 0 006.557 6.556h83.874a6.559 6.559 0 006.566-6.556V123.2z" fill="#fff"></path><path d="M0 0h233.282" fill="none" stroke="#da4c3f" stroke-width="2.23" transform="translate(7.933 182.33) scale(.89656)"></path><path d="M43.11 119.315c.517.059.906.482.926.998v14.374c-.037.998-1.946 1.453-2 0v-14.374c.021-.577.327-1.025 1.074-.998zM31.689 118.773c.667.188.753.335.797.98v47.874c-.073 1.063-1.897 1.51-2 0v-47.874c.04-.6.353-1.095 1.203-.98z" fill="#fff" fill-rule="nonzero"></path><path d="M166.694 106.657c.972.314.964 1.855-.211 1.977h-113c-1.085-.113-1.281-1.864 0-2h113l.21.023z" fill="#e57f78" fill-rule="nonzero"></path><path d="M47.26 119.315c.517.059.906.482.925.998v14.374c-.04 1.064-1.951 1.286-2 0v-14.374c.022-.577.328-1.025 1.075-.998zM64.574 153.628c5.312.1 9.249 7.662 4.8 12.012-2.39 2.33-6.523 2.61-9.211.5-4.33-3.41-2.576-12.212 4.051-12.502.12-.01.24-.01.36-.01zm-.155 2c-4.26.08-7.176 7.372-1.88 9.612 3.88 1.64 9.533-3.69 5.646-7.971a5.103 5.103 0 00-3.766-1.64z" fill="#fff" fill-rule="nonzero"></path><path fill="#e57f78" fill-rule="nonzero" d="M71.469 143.629v2h-14v-2zM71.469 138.629v2h-14v-2zM71.469 133.629v2h-14v-2zM71.469 128.629v2h-14v-2z"></path><path d="M592 3707h62" fill="none" stroke="#f9e4e2" stroke-width="2" stroke-linecap="butt" transform="translate(-508.519 -3568.372)"></path><path d="M585 3707h48" fill="none" stroke="#f9e4e2" stroke-width="2.11" stroke-linecap="butt" transform="matrix(.89583 0 0 1 -447.579 -3550.372)"></path><path d="M585 3707h48" fill="none" stroke="#da4c3f" stroke-width="2" stroke-linecap="butt" transform="translate(-508.519 -3582.372)"></path><path d="M585 3707h48" fill="none" stroke="#f9e4e2" stroke-width="2.59" stroke-linecap="butt" transform="matrix(.4375 0 0 1 -117.458 -3550.372)"></path><path d="M585 3707h48" fill="none" stroke="#f9e4e2" stroke-width="1.63" stroke-linecap="butt" transform="matrix(1.41667 0 0 1 -723.27 -3542.372)"></path><path d="M590 3623c-14.751-12.72-49.214-6.27-42.982 9.09 3.507 8.64 16.603 8.36 24.597 7.21 1.984-.29 9.553-1.5 8.822-5.15-2.434-12.19-29.095-3.43-28.759 8.96.266 9.84 15.769 11.74 15.769 11.74s-13.016-.13-12.284 6.61c.741 6.83 12.244 2.08 11.633 13.89" fill="none" stroke="#f9e4e2" stroke-width="2.96" stroke-linecap="butt" transform="translate(-275.618 -2429.36) scale(.67668)"></path><path d="M623.344 3646.68l12.997 12.55-12.793 8 13.807 8.65-12.261 9.82" fill="none" stroke="#fff" stroke-width="3.95" stroke-linecap="butt" transform="matrix(.43516 0 0 .5688 -153.728 -2012.789)"></path><path d="M570.274 3629.24c-8.479.39-18.812 5.92-18.596 13.87.266 9.84 15.769 11.74 15.769 11.74s-13.016-.13-12.284 6.61c.741 6.83 12.244 2.08 11.633 13.89" fill="none" stroke="#fff" stroke-width="2.03" stroke-linecap="butt" transform="matrix(-.83351 -.2654 -.40843 .88989 2118.327 -3020.593)"></path><path d="M570.274 3629.24c-8.479.39-18.812 5.92-18.596 13.87.266 9.84 15.769 11.74 15.769 11.74s-13.016-.13-12.284 6.61c.741 6.83 12.244 2.08 11.633 13.89" fill="none" stroke="#fff" stroke-width="3.14" stroke-linecap="butt" transform="matrix(.52615 -.14098 .1856 .69266 -899.6 -2364.997)"></path><path d="M592 3707h62" fill="none" stroke="#da4c3f" stroke-width="2" stroke-linecap="butt" transform="translate(-480.519 -3562.372)"></path><path d="M592 3707h36.167" fill="none" stroke="#f9e4e2" stroke-width="2.78" stroke-linecap="butt" transform="matrix(.19355 0 0 1 -25.098 -3562.372)"></path><path d="M592 3707h36.167" fill="none" stroke="#f9e4e2" stroke-width="2.78" stroke-linecap="butt" transform="matrix(.19355 0 0 1 -4.098 -3575.372)"></path><path d="M592 3707h36.167" fill="none" stroke="#f9e4e2" stroke-width="2.78" stroke-linecap="butt" transform="matrix(.19355 0 0 1 10.903 -3575.372)"></path><path d="M592 3707h36.167" fill="none" stroke="#f9e4e2" stroke-width="2.78" stroke-linecap="butt" transform="matrix(.19355 0 0 1 10.903 -3550.372)"></path><path d="M592 3707h36.167" fill="none" stroke="#f9e4e2" stroke-width="2.8" stroke-linecap="butt" transform="matrix(.13866 0 0 1 61.393 -3556.372)"></path><path d="M592 3707h36.167" fill="none" stroke="#f9e4e2" stroke-width="2.8" stroke-linecap="butt" transform="matrix(.13866 0 0 1 55.393 -3575.372)"></path><path d="M592 3707h36.167" fill="none" stroke="#da4c3f" stroke-width="2.8" stroke-linecap="butt" transform="matrix(.13866 0 0 1 -5.608 -3542.372)"></path><path d="M592 3707h36.167" fill="none" stroke="#f9e4e2" stroke-width="2.8" stroke-linecap="butt" transform="matrix(.13866 0 0 1 70.713 -3556.372)"></path><path d="M592 3707h36.167" fill="none" stroke="#f9e4e2" stroke-width="2.8" stroke-linecap="butt" transform="matrix(.13866 0 0 1 64.713 -3575.372)"></path><path d="M592 3707h36.167" fill="none" stroke="#da4c3f" stroke-width="2.8" stroke-linecap="butt" transform="matrix(.13866 0 0 1 3.712 -3542.372)"></path><path d="M592 3707h36.167" fill="none" stroke="#f9e4e2" stroke-width="2.8" stroke-linecap="butt" transform="matrix(.13866 0 0 1 80.383 -3556.372)"></path><path d="M592 3707h36.167" fill="none" stroke="#f9e4e2" stroke-width="2.8" stroke-linecap="butt" transform="matrix(.13866 0 0 1 74.383 -3575.372)"></path><path d="M592 3707h36.167" fill="none" stroke="#da4c3f" stroke-width="2.8" stroke-linecap="butt" transform="matrix(.13866 0 0 1 13.383 -3542.372)"></path></svg>
