<svg xmlns="http://www.w3.org/2000/svg"><g fill="currentColor"><path d="M5 5.5L6 5v14.5a.5.5 0 0 1-.5.5.5.5 0 0 1-.5-.5v-14z"></path><path d="M5 13.51V5.29l.26-.15c.17-.09.46-.21.88-.33 1.62-.47 3.65-.46 6.02.31a11.9 11.9 0 0 0 6.91.15l.21-.06.09-.02.1-.01c.18-.05.18-.05.51.5l.01 8.29-.32.12c-.2.08-.58.2-1.09.31a12.7 12.7 0 0 1-6.74-.33 9.2 9.2 0 0 0-5.43-.3 3.66 3.66 0 0 0-.67.25.5.5 0 0 1-.74-.47.5.5 0 0 1 0-.04zm1.14-.7a10.2 10.2 0 0 1 6.02.31 11.72 11.72 0 0 0 6.83.15V6.32a12.63 12.63 0 0 1-.47.11c-2.08.43-4.34.4-6.68-.36A9.2 9.2 0 0 0 6 5.91v6.94l.14-.04z"></path></g></svg>
